<?xml version="1.0" encoding="UTF-8" standalone="no"?>
<svg
   xmlns:dc="http://purl.org/dc/elements/1.1/"
   xmlns:cc="http://creativecommons.org/ns#"
   xmlns:rdf="http://www.w3.org/1999/02/22-rdf-syntax-ns#"
   xmlns:svg="http://www.w3.org/2000/svg"
   xmlns="http://www.w3.org/2000/svg"
   viewBox="0 0 581.89899 582.13916"
   height="582.13916"
   width="581.89899"
   version="1.1"
   id="svg3380">
  <metadata
     id="metadata3386">
    <rdf:RDF>
      <cc:Work
         rdf:about="">
        <dc:format>image/svg+xml</dc:format>
        <dc:type
           rdf:resource="http://purl.org/dc/dcmitype/StillImage" />
        <dc:title></dc:title>
      </cc:Work>
    </rdf:RDF>
  </metadata>
  <defs
     id="defs3384" />
  <path
     id="path3390"
     d="m 269.94949,581.8532 c -18.85515,-1.9008 -25.88362,-2.88771 -38.5,-5.40602 -35.56094,-7.09822 -69.66716,-21.38679 -101.5,-42.52275 C 110.8307,521.23018 101.36892,513.4763 84.8958,497.00318 68.42268,480.53006 60.6688,471.06828 47.97455,451.94949 22.35523,413.36427 6.96558,371.68795 1.2624,325.44949 c -1.6832,-13.64658 -1.6832,-55.35342 0,-69 5.70318,-46.23846 21.09283,-87.91478 46.71215,-126.5 12.69425,-19.11879 20.44813,-28.58057 36.92125,-45.053689 16.05782,-16.05782 25.81657,-24.11261 43.55369,-35.94887 39.47327,-26.341119 81.30547,-41.9250927 128,-47.6845257 13.64658,-1.68320705 55.35342,-1.68320705 69,0 65.69285,8.102737 125.01285,36.9970057 171.60146,83.5856257 20.22483,20.224819 35.89282,41.111459 50.2691,67.012549 16.79094,30.2515 28.79591,67.9381 33.31653,104.58891 1.6832,13.64658 1.6832,55.35342 0,69 -5.75944,46.69453 -21.34341,88.52673 -47.68453,128 -11.65454,17.46481 -19.80904,27.379 -35.46076,43.11296 -45.62056,45.86028 -103.19318,74.58178 -167.16272,83.39321 -10.81937,1.49031 -51.68043,2.77445 -60.37908,1.89754 z m 41.64405,-85.44807 C 392.53163,488.24284 461.67015,432.93623 486.9414,356.13751 516.35369,266.75424 482.45755,169.57393 403.94949,118.19948 357.60381,87.871591 303.65167,77.758291 247.92813,88.953341 200.4124,98.499411 154.35736,128.0794 124.9338,167.94949 79.35691,229.70798 71.63347,312.54218 105.05837,381.1142 c 11.07796,22.72671 30.344,48.33068 47.97719,63.76018 44.6903,39.10519 100.83472,57.35192 158.55798,51.53075 z M 201.54315,338.15789 c -1.87348,-0.66462 -4.34848,-2.4789 -5.5,-4.03173 -1.92443,-2.59513 -2.09366,-4.14514 -2.09366,-19.17667 0,-15.0395 0.16843,-16.58017 2.0964,-19.17667 3.95612,-5.32791 3.62073,-5.29274 50.62077,-5.30859 l 43.71718,-0.0147 0.28282,-68.75 c 0.26231,-63.76086 0.41084,-68.93838 2.04685,-71.34587 2.94006,-4.3265 5.65626,-4.90413 23.06053,-4.90413 17.75014,0 19.28828,0.41683 22.18116,6.01104 1.29277,2.49995 1.4923,14.73024 1.47955,90.6893 -0.0114,67.69292 -0.29763,88.3501 -1.25,90.20326 -0.67939,1.32198 -2.50543,3.34698 -4.05785,4.5 -2.78868,2.07121 -3.58167,2.0989 -66,2.3048 -47.29451,0.15601 -64.03377,-0.0954 -66.58375,-1 z"
     style="fill:#000000" />
</svg>
