<?xml version="1.0" encoding="UTF-8" standalone="no"?>
<!-- Created with Inkscape (http://www.inkscape.org/) -->

<svg
   xmlns:dc="http://purl.org/dc/elements/1.1/"
   xmlns:cc="http://creativecommons.org/ns#"
   xmlns:rdf="http://www.w3.org/1999/02/22-rdf-syntax-ns#"
   xmlns:svg="http://www.w3.org/2000/svg"
   xmlns="http://www.w3.org/2000/svg"
   xmlns:sodipodi="http://sodipodi.sourceforge.net/DTD/sodipodi-0.dtd"
   xmlns:inkscape="http://www.inkscape.org/namespaces/inkscape"
   id="svg2"
   version="1.1"
   inkscape:version="0.91 r13725"
   width="153.53369"
   height="153.54987"
   viewBox="0 0 153.53369 153.54987"
   sodipodi:docname="insta.svg">
  <metadata
     id="metadata8">
    <rdf:RDF>
      <cc:Work
         rdf:about="">
        <dc:format>image/svg+xml</dc:format>
        <dc:type
           rdf:resource="http://purl.org/dc/dcmitype/StillImage" />
        <dc:title></dc:title>
      </cc:Work>
    </rdf:RDF>
  </metadata>
  <defs
     id="defs6" />
  <sodipodi:namedview
     pagecolor="#ffffff"
     bordercolor="#666666"
     borderopacity="1"
     objecttolerance="10"
     gridtolerance="10"
     guidetolerance="10"
     inkscape:pageopacity="0"
     inkscape:pageshadow="2"
     inkscape:window-width="751"
     inkscape:window-height="480"
     id="namedview4"
     showgrid="false"
     fit-margin-top="0"
     fit-margin-left="0"
     fit-margin-right="0"
     fit-margin-bottom="0"
     inkscape:zoom="1.18"
     inkscape:cx="14.771186"
     inkscape:cy="114.72019"
     inkscape:window-x="0"
     inkscape:window-y="0"
     inkscape:window-maximized="0"
     inkscape:current-layer="svg2" />
  <path
     style="fill:#040404"
     d="M 41.499996,152.96412 C 20.232826,150.83658 7.883957,141.019 1.841863,121.43517 0.187981,116.07456 0,111.53595 0,76.96527 0,43.55335 0.228492,37.639478 1.728938,32.216721 5.165193,19.797753 11.516913,11.366887 21.409266,6.094319 31.767806,0.573272 36.950006,0 76.499996,0 c 37.962864,0 44.506894,0.62416 53.884534,5.139427 11.20172,5.393549 19.809,17.812675 22.05743,31.825846 1.68332,10.491157 1.33349,73.035677 -0.45575,81.482557 -3.7686,17.79128 -13.64847,28.27467 -31.21941,33.12647 -4.59218,1.26802 -12.3866,1.65834 -38.266804,1.91626 -17.875,0.17814 -36.325,-0.0588 -41,-0.52644 z M 120,137.55937 c 10.22138,-3.67911 16.40876,-11.01009 18.45724,-21.86863 2.44779,-12.97525 1.64957,-75.02488 -1.0642,-82.725467 -3.26435,-9.262921 -9.98782,-15.311244 -19.63279,-17.661349 -7.75152,-1.888743 -51.769474,-2.85999 -68.895984,-1.520175 -15.5455,1.216132 -21.36424,3.288089 -27.29103,9.717893 C 14.380646,31.304687 14,33.991871 14,76.96527 c 0,40.93586 0.152814,42.27838 5.763596,50.63484 3.78278,5.63393 11.13213,9.83794 19.7364,11.28972 3.025,0.5104 21.25,0.82479 40.5,0.69863 C 110.80913,139.38655 115.5987,139.14359 120,137.55937 Z M 64.786036,114.57083 c -10.391,-3.3863 -19.4314,-11.41674 -24.12563,-21.43041 -2.37536,-5.06709 -2.66041,-6.85375 -2.66041,-16.67515 0,-10.05313 0.2438,-11.49648 2.83226,-16.76779 8.35253,-17.00966 27.51593,-25.960997 45.63878,-21.318138 11.90872,3.050868 20.811154,10.636808 26.360804,22.462558 2.78135,5.92676 3.10176,7.56995 3.04643,15.62337 -0.083,12.07668 -2.57786,18.50218 -10.45263,26.92034 -8.138444,8.70001 -15.208244,11.8611 -27.425644,12.26268 -5.69779,0.18728 -10.54615,-0.20805 -13.21396,-1.07746 z m 23.60408,-15.23809 c 15.192934,-7.57096 18.561334,-27.64035 6.74793,-40.2051 -5.30092,-5.63806 -10.11903,-7.61286 -18.63805,-7.63919 -6.39266,-0.0198 -8.18575,0.37995 -12.1446,2.70721 -8.84892,5.20195 -13.09885,12.42734 -13.09885,22.26961 0,7.32027 2.136,12.74018 7.04228,17.86921 5.19889,5.43492 10.35091,7.58234 18.25483,7.60883 5.10406,0.0171 7.72215,-0.56033 11.83646,-2.61057 z M 113.61007,43.56977 c -2.65841,-1.47345 -5.02045,-5.152519 -5.07463,-7.904157 -0.0619,-3.143054 2.77015,-7.377171 5.76366,-8.617125 9.42534,-3.904104 16.92017,8.310925 9.28512,15.132842 -3.39854,3.0366 -6.27746,3.43735 -9.97415,1.38844 z"
     id="path4138"
     inkscape:connector-curvature="0" />
</svg>
