<?xml version="1.0" encoding="UTF-8" standalone="no"?>
<svg
   xmlns:dc="http://purl.org/dc/elements/1.1/"
   xmlns:cc="http://creativecommons.org/ns#"
   xmlns:rdf="http://www.w3.org/1999/02/22-rdf-syntax-ns#"
   xmlns:svg="http://www.w3.org/2000/svg"
   xmlns="http://www.w3.org/2000/svg"
   viewBox="0 0 499.30994 216.91194"
   height="216.91194"
   width="499.30994"
   version="1.1"
   id="svg2">
  <metadata
     id="metadata8">
    <rdf:RDF>
      <cc:Work
         rdf:about="">
        <dc:format>image/svg+xml</dc:format>
        <dc:type
           rdf:resource="http://purl.org/dc/dcmitype/StillImage" />
        <dc:title></dc:title>
      </cc:Work>
    </rdf:RDF>
  </metadata>
  <defs
     id="defs6" />
  <path
     id="path3338"
     d="m 91.309948,216.01056 c -1.375,-0.44818 -4.975,-1.34166 -8,-1.98551 C 58.396659,208.72243 32.884282,191.51252 18.490971,170.30004 10.811128,158.9817 3.8618925,142.7628 1.0473375,129.58817 c -1.39645,-6.53662 -1.39645,-35.563304 0,-42.099938 14.8135755,-69.34077 88.9210515,-106.68324 153.7451125,-77.47157 13.97228,6.29633 32.5175,20.423035 32.5175,24.77 0,2.411003 -2.46538,5.251541 -4.55796,5.251541 -0.77831,0 -4.23367,-2.382937 -7.67858,-5.295416 C 153.66241,16.640962 131.53143,9.0834918 103.52776,10.310802 43.395598,12.946182 0.4214945,66.806044 10.829563,126.49034 c 5.303486,30.41243 26.334836,57.69919 54.7893,71.08539 21.979965,10.34033 49.502467,12.3467 72.577447,5.29085 13.90388,-4.25152 36.06239,-17.053 36.09896,-20.8552 0.008,-0.83975 -3.07642,-4.59424 -6.85444,-8.3433 l -6.86911,-6.81648 -4.88089,3.75371 c -6.00846,4.62089 -18.97329,10.82072 -27.50184,13.15148 -8.8366,2.41496 -29.904742,2.41025 -38.879042,-0.009 C 73.953594,179.60897 58.222487,169.69962 48.607222,158.10862 37.924217,145.23049 30.336223,124.64377 30.336223,108.5382 c 0,-22.415868 12.436029,-47.605306 30.097596,-60.963312 7.492144,-5.666545 19.922449,-11.833483 28.376129,-14.077989 15.491112,-4.11299 34.902372,-2.669667 50.318492,3.741426 12.631,5.25285 26.17849,15.599872 26.18482,19.998895 0.004,2.726417 -23.83386,26.800983 -26.53737,26.800983 -0.92297,0 -3.36397,-1.335213 -5.42445,-2.967139 -2.06048,-1.631927 -6.17523,-4.215505 -9.1439,-5.741285 -4.84208,-2.488636 -6.42677,-2.773728 -15.39759,-2.770091 -9.246352,0.0037 -10.503522,0.249396 -16.680992,3.259428 -14.38275,7.008135 -21.619945,21.062009 -19.729215,38.312034 1.24073,11.3198 8.898655,21.84885 19.729215,27.12614 6.17747,3.01003 7.43464,3.25568 16.680992,3.25943 10.88538,0.004 14.78577,-1.32661 24.49249,-8.35811 4.99229,-3.61639 6.09442,-3.78683 8.35252,-1.29166 2.58815,2.85987 2.00319,4.69478 -2.86183,8.97714 -20.1659,17.75074 -53.912252,13.33347 -68.734417,-8.99706 -13.177783,-19.85318 -9.37798,-47.7795 8.414805,-61.843889 16.85851,-13.325889 38.926572,-14.454343 56.589642,-2.893723 l 3.25321,2.129251 7.57954,-7.349468 7.57953,-7.349468 -3.20813,-2.678273 c -4.52945,-3.781349 -13.2688,-8.256736 -21.45736,-10.988234 -5.89966,-1.967978 -9.04348,-2.335023 -20,-2.335023 -11.053122,0 -14.123212,0.364604 -20.500002,2.434586 -23.726045,7.701746 -37.774438,22.491013 -46.132515,48.565414 -1.68721,5.263532 -1.68721,26.736477 0,32.000007 7.134486,22.2572 19.228594,36.9818 37.132515,45.2089 10.71948,4.92575 14.345501,5.65327 28.500002,5.71815 9.07775,0.0416 15.40636,-0.40009 18,-1.25628 13.49832,-4.45597 19.08308,-7.45522 28.76405,-15.4475 3.49381,-2.88437 5.36378,-3.78252 7.01335,-3.3685 3.55758,0.89289 25.7226,23.87256 25.7226,26.668 0,6.15062 -25.86431,23.66648 -43.5,29.45913 -2.2,0.72262 -6.475,1.84432 -9.5,2.49268 -3.025,0.64835 -6.88195,1.5943 -8.571,2.10211 -3.72323,1.11939 -30.927591,1.03695 -34.429002,-0.10434 z M 239.8669,168.99131 c -5.62183,-2.80475 -8.48385,-5.73682 -11.17953,-11.45311 -3.98531,-8.45102 -2.75402,-17.36349 3.39058,-24.54206 5.09973,-5.95788 10.35872,-8.32572 18.39683,-8.28312 11.19596,0.0593 19.12014,6.20916 22.4668,17.43608 1.36693,4.58558 1.41831,6.13461 0.34458,10.3891 -2.91982,11.56935 -11.63683,18.53199 -23.11154,18.46015 -4.25983,-0.0267 -7.66866,-0.69041 -10.30772,-2.00704 z m 13.03225,-6.42593 c 2.79317,-1.16706 3.92315,-1.22416 5.44292,-0.27505 1.49051,0.93084 2.1857,0.93005 3.11929,-0.004 0.93511,-0.93511 0.81217,-1.63135 -0.55474,-3.14177 -1.37913,-1.52392 -1.52431,-2.3735 -0.67637,-3.95789 1.54159,-2.8805 1.33689,-6.14893 -0.38512,-6.14893 -0.80565,0 -1.93751,0.88324 -2.51525,1.96276 -1.22886,2.29614 -2.85172,1.8678 -5.22055,-1.37791 -1.62854,-2.23138 -1.59675,-2.47094 0.75,-5.65178 3.09071,-4.18922 3.0898,-6.38479 -0.004,-9.47851 -4.88167,-4.8813 -12.54538,-1.8114 -12.54538,5.02584 0,1.87111 0.45,3.68014 1,4.02006 1.64434,1.01626 1.13587,4.06706 -1,6 -3.78278,3.42337 -1.793,11.43014 3.357,13.50842 3.15774,1.2743 5.29754,1.16276 9.2322,-0.48124 z m -8.36669,-4.08388 c -2.77208,-1.94164 -2.84048,-4.57407 -0.18138,-6.98052 2.00355,-1.81319 2.1094,-1.77825 5.75,1.89786 3.58336,3.61832 3.64318,3.79403 1.76774,5.19221 -2.49688,1.86147 -4.56645,1.83057 -7.33636,-0.10955 z m 0.62459,-16.87953 c -0.61051,-1.33993 -0.83999,-3.13992 -0.50994,-3.99999 0.76155,-1.98457 4.03569,-2.02437 5.65869,-0.0688 0.99985,1.20476 0.92208,1.98132 -0.40061,3.99999 -2.06343,3.14919 -3.33621,3.16763 -4.74814,0.0688 z m 45.1529,25.08516 c -2.73905,-1.39676 -5.66837,-4.02716 -7.48568,-6.72184 -2.66751,-3.95532 -2.98196,-5.22633 -2.95073,-11.92709 0.0373,-7.99796 1.40663,-11.82655 5.5914,-15.63302 4.1312,-3.75776 8.50871,-5.36697 14.59957,-5.36697 4.74259,0 6.72264,0.55095 10.43022,2.90222 6.00281,3.80688 6.47261,4.76911 3.74567,7.67181 -2.74363,2.92045 -4.61305,3.02086 -7.93045,0.42597 -3.64178,-2.84864 -10.0062,-2.65037 -13.31353,0.41477 -3.13071,2.90143 -4.11906,6.32334 -3.39201,11.74391 1.13584,8.46833 7.8252,11.56618 16.71629,7.74134 l 5.28104,-2.27184 2.31377,2.90173 c 2.1081,2.64382 2.17546,3.05456 0.75782,4.62104 -2.72139,3.0071 -10.09864,5.85048 -15.10248,5.82087 -2.94303,-0.0174 -6.47915,-0.90437 -9.2609,-2.3229 z m 39.90728,0.0234 c -6.69891,-3.53793 -10.08589,-9.67571 -10.14035,-18.3761 -0.086,-13.73249 7.19791,-21.31444 20.44323,-21.2798 10.62348,0.0278 17.46299,5.51921 19.64148,15.77009 1.30139,6.1237 -0.0845,13.49904 -3.449,18.35394 -5.28072,7.62009 -17.65107,10.20285 -26.49536,5.53187 z m 17.0961,-9.5219 c 3.02728,-3.02727 4.61387,-8.55502 3.60697,-12.56681 -0.33537,-1.33623 -1.7749,-3.81419 -3.19895,-5.50658 -2.22558,-2.64491 -3.25971,-3.07703 -7.36393,-3.07703 -3.78875,0 -5.30304,0.5283 -7.33306,2.55832 -4.92609,4.92608 -4.40189,15.18253 0.99284,19.42603 3.90562,3.07216 9.75706,2.70518 13.29613,-0.8339 z m 20.24234,10.69526 c -0.90815,-0.90812 -1.24572,-6.47057 -1.24572,-20.52664 0,-22.71154 -1.77392,-20.54965 16.5,-20.10864 l 12,0.2896 0,4 0,4 -9,0.5 -9,0.5 0,3.49999 0,3.5 7.3053,0.29493 7.30531,0.29492 -0.30531,4.20508 -0.3053,4.20507 -6,0.18398 c -3.3,0.10119 -6.54357,0.21369 -7.20794,0.25 -0.80754,0.0441 -1.30474,2.63487 -1.5,7.81602 l -0.29206,7.75 -3.50428,0.29572 c -1.92736,0.16264 -4.06486,-0.26486 -4.75,-0.95 z m 34.20053,-0.12519 c -0.27004,-0.70371 -0.36842,-10.04121 -0.21861,-20.75 l 0.27236,-19.47049 14,0 14,0 0,4 0,4 -9.25,0.28753 -9.25,0.28752 0,3.91866 0,3.91866 7.25,0.29381 7.25,0.29381 0.32418,3.39514 c 0.40653,4.25749 -0.92584,5.17425 -7.32418,5.03959 -2.75,-0.0579 -5.5625,-0.0669 -6.25,-0.02 -0.86909,0.0593 -1.25,2.15739 -1.25,6.88525 0,3.95556 -0.50196,7.30196 -1.2,8 -1.59677,1.59677 -7.73292,1.53839 -8.35375,-0.0795 z m 35.01119,0.0292 c -0.27619,-0.71975 -0.37961,-10.07037 -0.2298,-20.77916 l 0.27236,-19.47053 13.5,0 13.5,0 0.30563,4.21174 0.30563,4.21174 -9.30563,0.28826 -9.30563,0.28826 0,3.49999 0,3.5 7.25,0.29381 7.25,0.29381 0,3.8492 c 0,4.58018 -0.8724,5.06318 -9.14515,5.06318 l -5.98157,0 0.31336,3.25 0.31336,3.25 9.30563,0.28826 9.30563,0.28826 -0.30563,4.21174 -0.30563,4.21174 -13.27019,0.27917 c -10.2134,0.21486 -13.38587,-0.0223 -13.77237,-1.02948 z m 34.77083,0.41255 c -0.97476,-0.61866 -1.20828,-5.4606 -1,-20.73469 l 0.27173,-19.92755 14.25,-0.27746 14.25,-0.27745 0,4.48993 0,4.48993 -9.25,0.28752 -9.25,0.28753 0,3.49999 0,3.5 7.3053,0.29493 7.30531,0.29492 -0.30531,4.20508 -0.3053,4.20507 -6,0.18398 c -3.3,0.10119 -6.59101,0.21369 -7.31336,0.25 -0.87008,0.0437 -1.20759,1.16295 -1,3.31602 l 0.31336,3.25 9.25,0.28753 9.25,0.28752 0,4.46248 0,4.46247 -13.25,-0.0153 c -7.2875,-0.008 -13.82228,-0.37853 -14.52173,-0.82245 z M 251.30995,117.60723 c -10.77992,-2.99955 -17.12128,-8.28084 -21.69586,-18.069025 -2.5618,-5.481473 -2.80414,-6.993848 -2.80414,-17.500002 0,-10.505364 0.23649,-11.981549 2.73435,-17.067683 5.92738,-12.069331 15.60718,-18.167436 29.76565,-18.751834 10.97968,-0.453192 17.846,1.947868 25.26414,8.834527 l 5.23586,4.86073 -5.11048,5.160703 -5.11048,5.160704 -4.88952,-3.495759 c -6.9656,-4.980048 -12.32623,-6.399578 -18.22614,-4.8264 -8.94945,2.386319 -13.40823,9.186987 -13.52255,20.625012 -0.083,8.30507 2.36012,13.593112 8.09311,17.517177 2.97065,2.03332 4.83334,2.48231 10.28863,2.48 5.92999,-0.003 7.30989,-0.40585 12.56936,-3.673985 6.65965,-4.138198 6.58766,-4.157466 12.54821,3.358545 l 2.9198,3.68175 -2.77997,2.63282 c -9.27519,8.78424 -23.32853,12.39825 -35.27997,9.07272 z m 211,-0.0852 c -9.85289,-2.34893 -17,-5.30523 -17,-7.03183 0,-1.97539 5.61879,-11.824955 7.01027,-12.288785 0.65283,-0.21761 2.15508,0.084 3.33834,0.67019 10.77916,5.340195 22.82858,5.441025 25.62577,0.21444 2.30579,-4.308386 -0.49623,-6.454738 -14.97438,-11.470346 -14.28791,-4.949703 -19.51718,-10.615667 -19.45298,-21.077496 0.0554,-9.025891 3.76284,-14.794542 11.95298,-18.598334 4.92142,-2.28568 16.99764,-2.534101 24.70121,-0.508131 6.68736,1.758716 13.79879,4.607258 13.79879,5.527215 0,0.386975 -0.9,2.566377 -2,4.843114 -1.1,2.276738 -2,4.556161 -2,5.065385 0,2.844604 -2.81305,3.011279 -10.54708,0.624921 -4.37411,-1.349644 -9.54029,-2.453959 -11.48041,-2.454034 -6.5347,-2.52e-4 -10.22496,4.825994 -6.22251,8.138006 2.06871,1.711853 4.06133,2.626347 14.90757,6.841722 14.23719,5.533258 19.34243,10.944623 19.34243,20.502268 0,3.489635 -0.63094,6.607745 -1.6801,8.303045 -7.4813,12.08882 -19.60067,16.44615 -35.3199,12.69868 z m -163,-0.83023 c 0,-0.74051 1.8,-5.0298 4,-9.53178 2.2,-4.50197 4,-8.335515 4,-8.518985 0,-0.18348 3.7474,-8.156682 8.32756,-17.71823 4.58016,-9.561548 10.07291,-21.097132 12.20612,-25.634632 2.1332,-4.5375 4.45476,-8.25 5.15902,-8.25 0.70425,0 1.90971,1.4625 2.6788,3.25 0.76909,1.7875 4.31455,9.325 7.87882,16.75 3.56426,7.425 7.84604,16.425 9.51507,20 1.66903,3.575 5.3296,11.356092 8.1346,17.291307 2.80501,5.93523 5.10001,11.44773 5.10001,12.25 0,1.15429 -1.63709,1.45869 -7.84501,1.45869 -8.88406,0 -9.68552,-0.5093 -12.58899,-8 -2.69322,-6.94825 -2.79111,-7 -13.24098,-7 l -9.4301,0 -3.12953,6.75 c -1.72125,3.7125 -3.6101,7.08061 -4.19746,7.48469 -0.58736,0.40408 -4.55543,0.74158 -8.81793,0.75 -5.83677,0.0115 -7.75,-0.31707 -7.75,-1.33106 z m 37.22857,-27.215502 c 0.75269,-0.752685 -2.30754,-8.438095 -3.35994,-8.438095 -1.14887,0 -4.92681,7.608491 -4.15912,8.376178 0.77657,0.776572 6.75518,0.825803 7.51906,0.06192 z m 44.47774,27.934882 c -0.38847,-0.38847 -0.70631,-16.41705 -0.70631,-35.619064 l 0,-34.912754 18.25,0.331699 c 16.39761,0.298032 18.656,0.549967 22.25,2.482103 14.4677,7.777848 16.68276,26.701783 4.41636,37.730331 l -4.94224,4.443501 5.51294,11.599634 c 3.03212,6.37979 5.51294,12.28651 5.51294,13.12604 0,1.26868 -1.39303,1.47737 -8.25,1.23597 l -8.25,-0.29044 -5.71768,-11.75 c -5.68039,-11.67338 -5.7405,-11.749997 -9.21826,-11.749997 l -3.50059,0 -0.28173,11.749997 -0.28174,11.75 -7.04369,0.28965 c -3.87403,0.1593 -7.36153,-0.0282 -7.75,-0.41667 z m 31.22217,-39.835992 c 3.23646,-1.673641 4.07152,-3.32389 4.07152,-8.046192 0,-5.467634 -3.70902,-7.639177 -12.43579,-7.280853 l -7.06421,0.29006 -0.29913,6.900785 c -0.16452,3.795432 -0.0661,7.507932 0.21862,8.25 0.71676,1.867841 11.83468,1.786261 15.50899,-0.1138 z"
     style="fill:#202020" />
</svg>
