<?xml version="1.0" encoding="UTF-8" standalone="no"?>
<svg
   xmlns:dc="http://purl.org/dc/elements/1.1/"
   xmlns:cc="http://creativecommons.org/ns#"
   xmlns:rdf="http://www.w3.org/1999/02/22-rdf-syntax-ns#"
   xmlns:svg="http://www.w3.org/2000/svg"
   xmlns="http://www.w3.org/2000/svg"
   viewBox="0 0 128.45184 153.47586"
   height="153.47586"
   width="128.45184"
   version="1.1"
   id="svg2">
  <metadata
     id="metadata8">
    <rdf:RDF>
      <cc:Work
         rdf:about="">
        <dc:format>image/svg+xml</dc:format>
        <dc:type
           rdf:resource="http://purl.org/dc/dcmitype/StillImage" />
        <dc:title></dc:title>
      </cc:Work>
    </rdf:RDF>
  </metadata>
  <defs
     id="defs6" />
  <path
     id="path4138"
     d="M 14.507411,151.6299 C 8.6395414,148.95747 3.3883814,142.61387 1.4096654,135.80732 -2.8675286,121.09429 3.1159044,89.743291 12.261146,78.949511 c 3.097224,-3.65553 10.842213,-7.96348 15.944974,-8.86898 3.305034,-0.58649 4.355634,-0.17275 9.870714,3.88723 16.10764,11.85776 38.65262,11.29651 54.33795,-1.35272 3.32486,-2.68129 4.44297,-3.05527 7.5,-2.50853 16.485916,2.94841 25.741966,17.85374 28.124226,45.289389 1.45298,16.7335 -0.84795,25.93771 -8.20009,32.80193 -5.60743,5.23531 -6.28225,5.2994 -55.549386,5.27577 -42.130394,-0.0202 -46.101176,-0.16727 -49.782123,-1.8437 z M 56.239484,75.491261 c -11.06324,-2.32654 -21.99511,-11.19219 -27.122001,-21.995696 -2.298504,-4.843457 -2.610072,-6.753399 -2.610072,-16 0,-9.51813 0.266357,-11.042438 2.848388,-16.300768 3.634435,-7.401563 10.949285,-14.7164093 18.350845,-18.3508443 5.31173,-2.608253 6.72813,-2.84801 16.80077,-2.843902003734 C 77.954674,0.0055507 82.386624,1.7965627 91.594924,10.946583 c 8.14333,8.09179 10.751536,14.602147 10.844916,27.070009 0.0617,8.23818 -0.216,9.597046 -3.200126,15.658678 -4.15918,8.448491 -12.92496,16.813311 -20.64687,19.702451 -6.4943,2.42983 -16.39697,3.36614 -22.35336,2.11354 z"
     style="fill:#010101" />
</svg>
