<?xml version="1.0" encoding="UTF-8" standalone="no"?>
<!-- Created with Inkscape (http://www.inkscape.org/) -->

<svg
   xmlns:dc="http://purl.org/dc/elements/1.1/"
   xmlns:cc="http://creativecommons.org/ns#"
   xmlns:rdf="http://www.w3.org/1999/02/22-rdf-syntax-ns#"
   xmlns:svg="http://www.w3.org/2000/svg"
   xmlns="http://www.w3.org/2000/svg"
   xmlns:sodipodi="http://sodipodi.sourceforge.net/DTD/sodipodi-0.dtd"
   xmlns:inkscape="http://www.inkscape.org/namespaces/inkscape"
   id="svg2"
   version="1.1"
   inkscape:version="0.91 r13725"
   width="179.82863"
   height="125.65089"
   viewBox="0 0 179.82863 125.65089"
   sodipodi:docname="youtube.svg">
  <metadata
     id="metadata8">
    <rdf:RDF>
      <cc:Work
         rdf:about="">
        <dc:format>image/svg+xml</dc:format>
        <dc:type
           rdf:resource="http://purl.org/dc/dcmitype/StillImage" />
        <dc:title></dc:title>
      </cc:Work>
    </rdf:RDF>
  </metadata>
  <defs
     id="defs6" />
  <sodipodi:namedview
     pagecolor="#ffffff"
     bordercolor="#666666"
     borderopacity="1"
     objecttolerance="10"
     gridtolerance="10"
     guidetolerance="10"
     inkscape:pageopacity="0"
     inkscape:pageshadow="2"
     inkscape:window-width="751"
     inkscape:window-height="480"
     id="namedview4"
     showgrid="false"
     fit-margin-top="0"
     fit-margin-left="0"
     fit-margin-right="0"
     fit-margin-bottom="0"
     inkscape:zoom="1.18"
     inkscape:cx="44.786018"
     inkscape:cy="104.03099"
     inkscape:window-x="0"
     inkscape:window-y="0"
     inkscape:window-maximized="0"
     inkscape:current-layer="svg2" />
  <path
     style="fill:#010101"
     d="M 43.260214,125.17794 C 21.778462,124.22842 15.646449,122.78878 10.014592,117.37273 4.4836601,112.05373 2.1792391,104.98123 0.76224608,88.976335 -0.76516792,71.724245 0.13409508,33.402385 2.2947011,23.671155 4.4401401,14.008242 8.1678031,8.3179181 14.636877,4.8306731 22.031377,0.84456306 34.722693,0.01854606 88.853818,2.4506474e-4 140.77398,-0.01730494 157.23319,0.90324406 164.28759,4.2192001 c 12.02898,5.654291 15.48482,18.8049749 15.54043,59.1369049 0.0649,47.058605 -4.9971,58.329485 -27.34015,60.874815 -11.15258,1.27051 -87.026392,1.92835 -109.227656,0.94702 z M 118.84922,61.046035 c 0.005,-0.62051 -46.143572,-24.90071 -47.327702,-24.90071 -0.36724,0 -0.6677,11.28465 -0.6677,25.077 l 0,25.07699 23.9954,-12.327 c 13.197472,-6.77984 23.997472,-12.59667 24.000002,-12.92628 z"
     id="path4138"
     inkscape:connector-curvature="0" />
</svg>
