<?xml version="1.0" encoding="UTF-8" standalone="no"?>
<svg
   xmlns:dc="http://purl.org/dc/elements/1.1/"
   xmlns:cc="http://creativecommons.org/ns#"
   xmlns:rdf="http://www.w3.org/1999/02/22-rdf-syntax-ns#"
   xmlns:svg="http://www.w3.org/2000/svg"
   xmlns="http://www.w3.org/2000/svg"
   viewBox="0 0 387.785 581.76294"
   height="581.76294"
   width="387.785"
   version="1.1"
   id="svg3356">
  <metadata
     id="metadata3362">
    <rdf:RDF>
      <cc:Work
         rdf:about="">
        <dc:format>image/svg+xml</dc:format>
        <dc:type
           rdf:resource="http://purl.org/dc/dcmitype/StillImage" />
        <dc:title></dc:title>
      </cc:Work>
    </rdf:RDF>
  </metadata>
  <defs
     id="defs3360" />
  <path
     id="path3366"
     d="m 180.29315,580.65007 c -10.73083,-3.54764 -19.99623,-10.13373 -25.45016,-18.09065 -3.04918,-4.44857 -140.56563,-295.4657 -145.3105496,-307.5113 -11.77686,-29.8971 -12.751,-78.68654 -2.3117,-115.77992 C 23.70989,80.678274 73.29544,29.067631 131.79315,9.6082323 c 38.50603,-12.80912 85.44603,-12.811099 124,-0.0052 28.10819,9.3362597 52.34821,24.6228797 75.06227,47.3369417 38.46044,38.46044 56.9634,83.401226 56.92953,138.272866 -0.0132,21.44304 -2.65432,39.79156 -7.95833,55.28941 -3.31459,9.68493 -142.14602,305.31961 -146.05781,311.02289 -4.48657,6.54131 -11.59096,12.39222 -19.78987,16.29823 -7.23356,3.44611 -8.33302,3.6759 -18.68579,3.90534 -7.07019,0.1567 -12.42902,-0.22864 -15,-1.07861 z m 36.37097,-292.13093 c 27.39869,-6.66648 51.35932,-26.0791 64.20351,-52.01692 7.65077,-15.45012 9.24059,-22.76215 9.24059,-42.5 0,-19.73785 -1.58982,-27.04988 -9.24059,-42.5 -12.33082,-24.90112 -36.18246,-44.59656 -62.57448,-51.670726 -11.63669,-3.11913 -37.44788,-3.10683 -49,0.0233 -27.36325,7.414376 -51.43828,27.667266 -63.50963,53.426866 -6.29125,13.42516 -8.38036,23.57625 -8.38036,40.72051 0,11.60329 0.44078,16.27338 2.2064,23.37699 9.20935,37.05185 41.43274,66.77721 78.68359,72.58388 8.23305,1.28337 30.62509,0.44073 38.37097,-1.44395 z"
     style="fill:#000000" />
</svg>
