<?xml version="1.0" encoding="UTF-8" standalone="no"?>
<svg
   xmlns:dc="http://purl.org/dc/elements/1.1/"
   xmlns:cc="http://creativecommons.org/ns#"
   xmlns:rdf="http://www.w3.org/1999/02/22-rdf-syntax-ns#"
   xmlns:svg="http://www.w3.org/2000/svg"
   xmlns="http://www.w3.org/2000/svg"
   viewBox="0 0 434.5144 533.36884"
   height="533.36884"
   width="434.5144"
   version="1.1"
   id="svg3344">
  <metadata
     id="metadata3350">
    <rdf:RDF>
      <cc:Work
         rdf:about="">
        <dc:format>image/svg+xml</dc:format>
        <dc:type
           rdf:resource="http://purl.org/dc/dcmitype/StillImage" />
        <dc:title></dc:title>
      </cc:Work>
    </rdf:RDF>
  </metadata>
  <defs
     id="defs3348" />
  <path
     id="path3354"
     d="M 25.78604,531.9744 C 15.56688,528.78067 7.29345,521.47987 2.63517,511.54516 L 0,505.92515 l 0,-118.5 0,-118.5 2.80769,-5.71758 c 3.55247,-7.23426 9.95992,-13.85734 16.83654,-17.40313 4.63664,-2.39079 6.8999,-2.83663 16.85577,-3.32044 l 11.5,-0.55885 0.53343,-48.5 c 0.59512,-54.1099 0.92081,-57.10287 8.64442,-79.43855 C 74.67678,63.381937 119.03279,20.972358 169.80599,6.3008108 187.16648,1.2842808 196.27568,0.08181485 217.5,0.00493585 c 20.36894,-0.07378 26.61516,0.636879 44.29935,5.04012695 54.14431,13.4815872 103.56574,61.2051942 119.2665,115.1692072 5.92407,20.36122 6.62954,27.91699 7.17596,76.85686 l 0.50407,45.14597 11.12706,0.40078 c 9.74837,0.35113 11.7884,0.74331 16.46456,3.16521 6.37564,3.30211 13.24279,9.91896 16.0936,15.50701 2.05856,4.03511 2.0689,4.66799 2.0689,126.64487 0,136.92249 0.68198,124.5335 -7.33482,133.24503 -5.21019,5.66171 -9.86108,8.63191 -16.69327,10.66085 -4.78908,1.42221 -24.5255,1.57746 -192.90341,1.5174 C 65.37266,533.30395 29.20531,533.043 25.78604,531.9744 Z M 315,199.92515 c 0,-44.69431 -0.32648,-48.68559 -5.14548,-62.90365 -4.71181,-13.90181 -12.74678,-25.92982 -25.49254,-38.161253 -8.93002,-8.56967 -14.28336,-12.29456 -25.10257,-17.46651 -14.26232,-6.81787 -21.69795,-8.31668 -41.25941,-8.31668 -19.61461,0 -26.99075,1.49555 -41.43576,8.4013 -21.29478,10.18043 -40.86958,30.937363 -48.98836,51.946793 -5.91021,15.29419 -6.27597,18.75252 -6.79717,64.26875 -0.26306,22.97282 -0.22165,42.43756 0.092,43.25498 0.5001,1.30324 12.4857,1.45483 97.3498,1.23125 L 315,241.92515 l 0,-42 z"
     style="fill:#000000" />
</svg>
