<?xml version="1.0" encoding="UTF-8" standalone="no"?>
<svg
   xmlns:dc="http://purl.org/dc/elements/1.1/"
   xmlns:cc="http://creativecommons.org/ns#"
   xmlns:rdf="http://www.w3.org/1999/02/22-rdf-syntax-ns#"
   xmlns:svg="http://www.w3.org/2000/svg"
   xmlns="http://www.w3.org/2000/svg"
   viewBox="0 0 193.05177 109.88084"
   height="109.88084"
   width="193.05177"
   version="1.1"
   id="svg2">
  <metadata
     id="metadata8">
    <rdf:RDF>
      <cc:Work
         rdf:about="">
        <dc:format>image/svg+xml</dc:format>
        <dc:type
           rdf:resource="http://purl.org/dc/dcmitype/StillImage" />
        <dc:title></dc:title>
      </cc:Work>
    </rdf:RDF>
  </metadata>
  <defs
     id="defs6" />
  <path
     id="path4138"
     d="M 85.500004,108.8345 C 58.281798,105.13746 35.061923,81.29155 9.755585,31.04795 4.390013,20.39505 0,10.623386 0,9.333129 0,8.03724 0.865773,6.523859 1.934258,5.952023 3.03655,5.362094 10.754757,4.916839 19.878495,4.916839 c 18.561362,0 19.120547,0.242121 23.095307,10 4.350397,10.680051 15.553166,30.358661 19.728492,34.654751 8.500022,8.74588 12.097152,4.85238 13.01881,-14.09144 0.86538,-17.78708 -1.6243,-25.273946 -9.014658,-27.108521 -6.628879,-1.645546 1.422549,-7.015115 12.005928,-8.00685903 9.62754,-0.902174 25.945586,-0.0364 29.427356,1.56130103 4.44573,2.040046 5.04676,4.952673 4.84403,23.474389 -0.26337,24.06135 -0.24893,24.25121 2.01624,26.51638 1.1,1.1 2.53273,2 3.18384,2 4.0507,0 17.74135,-19.73635 25.23925,-36.384764 2.38066,-5.286028 4.88947,-10.286923 5.57514,-11.113099 1.03214,-1.24366 4.65476,-1.502138 21.05279,-1.502138 25.47213,0 25.94066,0.323336 19.60275,13.528212 -1.84042,3.834479 -8.22023,13.493829 -14.17734,21.465199 -5.95712,7.97138 -11.68964,15.9485 -12.73894,17.72694 -2.97549,5.04307 -1.15868,8.83419 8.34677,17.41712 13.90706,12.55735 22.90958,25.15586 21.39211,29.937 -1.15347,3.63424 -4.40847,4.36045 -21.30856,4.75407 -21.69971,0.50542 -22.09814,0.34794 -36.6205,-14.47372 -7.26082,-7.41046 -11.86265,-11.35482 -13.24753,-11.35482 -1.85817,0 -7.22376,4.98786 -7.34369,6.82673 -0.4662,7.14784 -2.05445,15.68311 -3.10244,16.67251 -1.60207,1.51251 -17.934126,2.42621 -25.353646,1.41842 z"
     style="fill:#010101" />
</svg>
