<svg xmlns="http://www.w3.org/2000/svg" viewBox="0 0 512 512"><path d="M473.848 253.62c-5.576-22.832-44.795-24.966-68.228-26.241-1.976-.108-3.743-.203-5.241-.305a905.788 905.788 0 0 0-22.865-1.247c.623-23.091 2.39-45.434 5.301-66.744a7.583 7.583 0 0 0-15.027-2.053c-2.794 20.449-4.565 41.805-5.304 63.837-26.522 5.395-65.695 8.575-106.529 8.575-41.419 0-79.719-3.098-106.438-8.552-.737-22.063-2.506-43.442-5.298-63.901a7.58 7.58 0 0 0-8.539-6.488 7.583 7.583 0 0 0-6.488 8.539c2.908 21.313 4.673 43.671 5.295 66.787-8.022.342-15.562.753-22.865 1.247-1.498.102-3.265.197-5.241.305-23.433 1.275-62.653 3.41-68.229 26.241-1.621 6.639 1.042 14.63 7.7 23.11 12.87 16.391 38.383 32.684 69.997 44.7 39.859 15.151 88.311 23.159 140.117 23.159h.069c51.806 0 100.257-8.008 140.117-23.159 31.614-12.017 57.127-28.309 69.997-44.7 6.657-8.48 9.32-16.471 7.699-23.11zm-324.128 7.831c.052-2.302.093-4.598.123-6.889l.005-.523c.019-1.53.032-3.057.042-4.582.001-.224.005-.447.006-.671l.007-1.432v-.252c.008-2.289.004-4.572-.01-6.848-.001-.217-.005-.432-.006-.649-.006-.826-.015-1.651-.023-2.476-.002-.236.001-.476-.002-.712 27.504 5.235 65.429 8.192 106.092 8.192 40.717 0 78.672-2.962 106.182-8.209-.002.176 0 .355-.002.531-.042 3.93-.056 7.877-.034 11.844l.006.624c.026 4.04.079 8.096.172 12.173-1.049.772-3.786 2.394-10.089 4.307-8.473 2.491-21.78 5.097-39.739 6.976-1.094.113-2.192.224-3.306.33l-.211.021c-13.178 1.245-27.706 2.017-42.734 2.258l-.77.01a626.494 626.494 0 0 1-19.002-.001c-.228-.003-.459-.005-.685-.009-15.028-.241-29.555-1.012-42.734-2.257l-.254-.025a396.037 396.037 0 0 1-3.227-.322c-18.05-1.886-31.397-4.506-39.874-7.007-6.104-1.859-8.841-3.441-9.935-4.229l.002-.173zm304.499 5.912c-11.051 14.075-34.774 28.987-63.457 39.889-38.142 14.498-84.713 22.164-134.677 22.169a4.931 4.931 0 0 0-.172 0c-49.963-.005-96.535-7.671-134.677-22.169-28.683-10.902-52.406-25.815-63.457-39.889-4.613-5.875-5.098-9.315-4.895-10.145 1.045-4.277 8.117-8.199 19.403-10.761 11.784-2.675 25.705-3.432 34.916-3.934 2.052-.112 3.887-.212 5.442-.317a891.878 891.878 0 0 1 22.076-1.21c.002.405.007.808.008 1.213a750.19 750.19 0 0 1-.013 7.035c-.005.766-.005 1.53-.012 2.296l-.005.57a710.462 710.462 0 0 1-.149 9.368v.003a10.759 10.759 0 0 0-.106 1.499c0 10.308 11.853 16.802 39.634 21.715 21.942 3.881 51.022 6.017 81.885 6.017s59.943-2.137 81.885-6.017c27.781-4.913 39.634-11.407 39.634-21.715l-.002-.188v-.006a724.995 724.995 0 0 1-.173-10.032l-.002-.157c-.01-.921-.011-1.84-.017-2.76-.017-2.46-.024-4.92-.016-7.376.002-.488.006-.975.009-1.463a891.97 891.97 0 0 1 22.074 1.21c1.555.105 3.39.205 5.442.317 9.211.502 23.132 1.259 34.916 3.934 11.286 2.562 18.358 6.484 19.402 10.761.202.828-.283 4.268-4.896 10.143zM399.76 434.46a97.046 97.046 0 0 0 5.057-16.93c2.553-12.744 2.002-24.001-1.642-33.458-4.218-10.952-12.352-18.999-24.176-23.921-27.324-11.374-67.084 9.409-97.804 30.863-3.975-4.037-9.497-6.547-15.597-6.547H246.4c-6.1 0-11.623 2.509-15.597 6.547-30.72-21.452-70.48-42.234-97.804-30.863-11.823 4.921-19.957 12.969-24.176 23.919-7.514 19.506-.033 41.908 3.415 50.402a97.044 97.044 0 0 0-5.056 16.931c-2.554 12.744-2.002 24.001 1.642 33.458 4.219 10.951 12.353 18.998 24.176 23.919 5.345 2.225 11.161 3.219 17.298 3.219 25.233 0 55.794-16.825 80.505-34.081 3.975 4.038 9.497 6.547 15.597 6.547h19.198c6.1 0 11.623-2.509 15.597-6.547C305.908 495.177 336.467 512 361.701 512c6.134 0 11.954-.995 17.298-3.219 11.824-4.921 19.958-12.969 24.176-23.921 7.514-19.506.033-41.906-3.415-50.4zm-210.009-15.202l34.751 9.427v11.565l-34.751 9.427a7.583 7.583 0 1 0 3.97 14.637l30.78-8.35v6.604c0 .398.012.793.033 1.186l.001.03c-37.665 26.767-68.757 38.052-85.709 30.995-7.958-3.312-13.142-8.339-15.85-15.368-6.799-17.649 4.267-41.468 4.38-41.706a7.586 7.586 0 0 0 0-6.474c-.113-.238-11.179-24.057-4.38-41.707 2.708-7.03 7.893-12.057 15.85-15.368 3.311-1.378 7.159-2.056 11.493-2.056 17.853 0 43.907 11.513 74.216 33.051l-.001.021c-.021.396-.034.795-.034 1.196v6.604l-30.78-8.35a7.583 7.583 0 1 0-3.969 14.636zm82.58 43.31h-.002c0 .341-.032.684-.087 1.027l-.013.083c-.06.348-.146.695-.262 1.039-.004.011-.005.022-.008.033-.909 2.642-3.414 4.549-6.361 4.549H246.4c-2.947 0-5.452-1.907-6.361-4.549-.004-.011-.005-.022-.008-.033a6.934 6.934 0 0 1-.262-1.039l-.013-.083a6.491 6.491 0 0 1-.087-1.027v-56.202c0-.341.032-.684.087-1.027l.013-.084a6.86 6.86 0 0 1 .263-1.04c.004-.011.005-.022.008-.032.91-2.642 3.414-4.548 6.361-4.548h19.198c2.947 0 5.451 1.906 6.361 4.548.004.011.004.022.008.032.116.345.202.692.263 1.04l.013.084c.055.343.087.686.087 1.027v56.202zm116.691 16.841c-2.708 7.03-7.893 12.058-15.851 15.369-16.951 7.055-48.043-4.228-85.709-30.995l.001-.03c.021-.393.033-.788.033-1.186v-6.604l30.781 8.35a7.568 7.568 0 0 0 1.99.267 7.583 7.583 0 0 0 1.98-14.904l-34.751-9.427v-11.565l34.751-9.427a7.584 7.584 0 0 0-3.97-14.638l-30.781 8.35v-6.604c0-.401-.013-.8-.034-1.196l-.001-.021c37.666-26.766 68.76-38.048 85.709-30.995 7.958 3.312 13.143 8.339 15.851 15.369 6.799 17.651-4.267 41.467-4.38 41.705a7.59 7.59 0 0 0 .001 6.477c.113.238 11.179 24.053 4.38 41.705zm28.592-442.287c.003-.171-.012-.341-.021-.512-.008-.145-.012-.291-.025-.435a6.947 6.947 0 0 0-.026-.208c-1.231-11.935-17.575-20.568-51.174-27.081C336.812 3.155 297.615 0 255.999 0c-41.617 0-80.813 3.155-110.369 8.883-33.398 6.473-49.744 15.043-51.148 26.868-.076.464-.11.93-.099 1.399-.002.097-.012.193-.012.291 0 4.008 1.626 7.655 4.944 10.982 5.768 12.179 16.014 37.372 24.052 76.393a7.584 7.584 0 0 0 14.855-3.061c-5.516-26.778-12.09-47.412-17.669-62.036 1.824.604 3.758 1.192 5.78 1.767.297.085.598.169.899.254.434.121.872.241 1.315.361 11.461 3.128 25.229 5.656 40.276 7.609.983.129 1.983.251 2.979.376l1.356.167c21.151 2.584 45.141 4.136 70.33 4.523 1.231.02 2.461.039 3.687.053.778.008 1.556.015 2.336.021 2.171.018 4.337.031 6.489.031 2.384 0 4.764-.012 7.139-.034 1.223-.011 2.438-.03 3.656-.046 1.059-.014 2.119-.027 3.175-.045 1.702-.029 3.393-.067 5.083-.107.461-.011.923-.021 1.384-.033 29.179-.739 56.489-3.053 79.26-6.734 1.619-.261 3.208-.527 4.764-.798l.545-.096c6.403-1.126 12.268-2.34 17.588-3.638l.035-.008c.801-.196 1.59-.393 2.366-.592.184-.047.371-.093.553-.141.317-.082.625-.166.938-.249a152.811 152.811 0 0 0 8.985-2.647c-5.58 14.637-12.155 35.284-17.677 62.069a7.585 7.585 0 0 0 7.435 9.117 7.587 7.587 0 0 0 7.42-6.054c8.042-39.016 18.288-64.239 24.054-76.438 3.305-3.323 4.924-6.963 4.924-10.964 0-.108-.011-.213-.013-.321zm-15.787.769c-.126.098-.262.177-.383.284-1.648 1.46-7.44 5.519-24.122 9.838l-.248.064c-.585.151-1.188.301-1.8.453l-.543.134c-.533.13-1.083.26-1.637.391l-.772.182c-.514.119-1.044.238-1.574.356-.301.067-.597.135-.904.202-.555.122-1.129.244-1.703.366-.291.062-.573.124-.868.185-.831.173-1.681.346-2.551.519l-.121.024c-.946.187-1.915.374-2.908.56l-.109.02a330.057 330.057 0 0 1-8.67 1.498c-.868.139-1.753.273-2.635.408-.994.152-1.985.305-2.997.453-.639.093-1.292.182-1.938.272-1.234.173-2.465.348-3.723.513-.084.011-.171.021-.256.033-16.036 2.103-34.05 3.592-52.947 4.39l-.235.01c-1.972.083-3.954.157-5.944.225l-.969.031c-1.782.058-3.57.111-5.365.157-.619.016-1.241.028-1.862.042-1.536.036-3.072.07-4.615.097-1.054.018-2.114.029-3.171.043-1.155.015-2.307.033-3.465.043a767.11 767.11 0 0 1-13.586 0c-1.152-.01-2.299-.028-3.448-.043-1.061-.014-2.124-.025-3.181-.043-1.54-.026-3.075-.061-4.608-.096-.623-.014-1.248-.026-1.87-.042a723.24 723.24 0 0 1-5.379-.158c-.313-.01-.628-.019-.941-.03a757.29 757.29 0 0 1-5.962-.225l-.217-.009c-18.868-.796-36.855-2.282-52.873-4.379-.11-.015-.224-.028-.334-.042-1.252-.165-2.477-.338-3.704-.51-.653-.092-1.313-.181-1.96-.275-1.006-.146-1.991-.298-2.98-.45-.892-.137-1.788-.272-2.665-.413a368.088 368.088 0 0 1-5.868-.988c-.91-.162-1.802-.324-2.675-.487l-.22-.04a276.57 276.57 0 0 1-5.584-1.104c-.27-.056-.529-.113-.796-.17-.6-.127-1.2-.254-1.78-.382-.287-.063-.564-.126-.846-.189-.551-.123-1.101-.247-1.634-.37l-.722-.17c-.572-.134-1.139-.269-1.689-.403l-.492-.121c-.631-.156-1.253-.311-1.855-.466l-.191-.05c-16.709-4.321-22.516-8.383-24.169-9.844-.122-.108-.259-.186-.385-.285a5.488 5.488 0 0 1-.414-.458c2.037-2.595 12.536-9.021 43.22-14.5 28.078-5.014 64.663-7.775 103.015-7.775s74.936 2.761 103.015 7.775c30.684 5.479 41.184 11.905 43.219 14.499-.109.138-.247.29-.406.45z"/></svg>